<?xml version="1.0" encoding="UTF-8" standalone="no"?>
<svg
   xmlns:dc="http://purl.org/dc/elements/1.1/"
   xmlns:cc="http://creativecommons.org/ns#"
   xmlns:rdf="http://www.w3.org/1999/02/22-rdf-syntax-ns#"
   xmlns:svg="http://www.w3.org/2000/svg"
   xmlns="http://www.w3.org/2000/svg"
   xmlns:sodipodi="http://sodipodi.sourceforge.net/DTD/sodipodi-0.dtd"
   xmlns:inkscape="http://www.inkscape.org/namespaces/inkscape"
   height="32"
   width="32"
   viewBox="0 0 31.999999 31.999998"
   version="1.1"
   id="svg4"
   sodipodi:docname="weather-splashscreen-template.svg"
   inkscape:export-filename="/home/corion/Projekte/PWA-WeatherClient/public/weather-splashscreen-32x32.png"
   inkscape:export-xdpi="96"
   inkscape:export-ydpi="96"
   inkscape:version="0.92.4 (5da689c313, 2019-01-14)">
  <metadata
     id="metadata10">
    <rdf:RDF>
      <cc:Work
         rdf:about="">
        <dc:format>image/svg+xml</dc:format>
        <dc:type
           rdf:resource="http://purl.org/dc/dcmitype/StillImage" />
        <dc:title />
      </cc:Work>
    </rdf:RDF>
  </metadata>
  <defs
     id="defs8" />
  <sodipodi:namedview
     pagecolor="#ffffff"
     bordercolor="#666666"
     borderopacity="1"
     objecttolerance="10"
     gridtolerance="10"
     guidetolerance="10"
     inkscape:pageopacity="0"
     inkscape:pageshadow="2"
     inkscape:window-width="1638"
     inkscape:window-height="874"
     id="namedview6"
     showgrid="false"
     inkscape:zoom="3.6875"
     inkscape:cx="17.672756"
     inkscape:cy="20.837843"
     inkscape:window-x="1384"
     inkscape:window-y="1482"
     inkscape:window-maximized="0"
     inkscape:current-layer="svg4" />
  <g
     id="g61"
     transform="matrix(0.14464616,0,0,0.14464616,13.685505,12.441925)">
    <path
       inkscape:connector-curvature="0"
       id="path55"
       d="m -8.6386719,-75.484375 c -6.4985751,0.107789 -8.9673451,7.617212 -7.7050781,13.060547 -1.209005,7.312699 8.8625369,12.377977 13.84375,6.708984 3.46901404,-4.216793 3.10985274,-10.760415 1.2734375,-15.640625 -1.4316456,-2.642176 -4.4185774,-4.28913 -7.4121094,-4.128906 z m -46.9257811,19.539063 c -7.397889,-0.295055 -10.809287,10.205023 -4.904061,14.490148 2.976091,4.735728 10.025573,8.385544 14.72828,3.836023 4.772747,-4.106565 2.291082,-11.551931 -2.563446,-14.489892 -1.826513,-2.150121 -4.30429,-3.957429 -7.260773,-3.836279 z m 94.392578,0 c -5.41585,0.522569 -9.724981,5.381376 -11.939453,10.072265 -2.629691,7.26628 7.245279,13.743488 12.875,8.521485 4.579345,-3.203188 9.975812,-9.695012 5.667969,-15.285157 -1.511812,-2.072796 -4.029216,-3.360543 -6.603516,-3.308593 z m -48.3789062,4.742187 c -24.6905428,0.0845 -47.0267918,20.786021 -49.0097658,45.390625 -1.26863,10.850675 1.706322,22.062291 6.912109,31.345703 -12.218798,16.195157 -8.248308,41.557334 8.410157,53.181641 6.110344,4.552637 13.601722,7.126743 21.199219,7.505859 3.093634,-5.356737 6.186295,-10.714036 9.277343,-16.072265 C -23.046765,71.432844 -35.03127,68.476418 -40,58.478516 c -7.655899,-12.925358 1.732558,-31.417882 16.775391,-32.701172 3.685434,-0.523804 7.409947,0.14878 10.9375,1.21875 1.104677,-18.4421886 19.0149375,-33.7429809 37.433593,-31.5996096 16.048069,1.1054375 29.522182,14.7776836 31.279297,30.6210936 10.684235,-9.774755 29.138074,-8.211331 37.515625,3.699219 9.788934,12.189682 4.508526,32.283223 -9.902344,38.207031 -4.533786,2.171149 -9.645674,2.407219 -14.580078,2.22461 -3.097452,5.379773 -6.196505,10.758626 -9.296875,16.136718 13.103884,0.648151 27.554777,0.428139 38.304688,-8.25 C 116.23641,65.428884 120.51047,38.267643 107.43359,20.830078 98.352765,7.7458358 81.276459,0.87645422 65.679688,4.2070312 59.831295,-5.9496689 50.186405,-13.751539 39.246094,-17.773438 32.246233,-37.957279 11.810034,-51.964399 -9.5507812,-51.203125 Z m 1.2421874,16.121094 c 10.5642936,-0.30019 22.6874478,5.959297 27.4921878,14.285156 -18.7374801,0.860841 -36.266137,13.2160873 -43.521485,30.46875 -5.202968,0.404495 -10.447866,2.430453 -14.890625,4.595703 -8.469184,-16.1176285 -0.75954,-38.001875 15.314454,-45.599609 4.806132,-2.46538 10.204308,-3.759227 15.6054682,-3.75 z M -75.386719,-8.7324219 c -7.52821,-0.094453 -10.650771,11.0239931 -4.070312,14.8066407 4.53851,2.2331334 10.60982,2.2543113 15.097656,-0.109375 6.561624,-3.9884321 2.99088,-15.1369738 -4.595703,-14.7050782 -2.14373,0.010833 -4.288118,-0.018122 -6.431641,0.00781 z M 3.6230469,58.015625 C -4.2261848,58.482821 -5.6914045,68.222192 -9.5996094,73.347656 -13.089169,80.183667 -4.1761963,87.936295 2.0976562,83.421875 6.7015062,79.566502 8.8952617,73.396685 11.646484,68.197266 13.178518,63.121121 8.8779494,57.739337 3.6230469,58.015625 Z m 48.5449221,0 c -7.844923,0.46717 -9.309815,10.200695 -13.216797,15.322266 -3.501458,6.835741 5.414332,14.602601 11.693359,10.083984 4.603576,-3.855734 6.796834,-10.025167 9.548828,-15.224609 1.528834,-5.077331 -2.768863,-10.458674 -8.02539,-10.181641 z M 21.820312,77.833984 c -7.832075,0.490987 -9.286347,10.213879 -13.1972651,15.330078 -3.5133878,6.834563 5.4047381,14.584858 11.6835941,10.087888 4.61581,-3.851586 6.81123,-10.031792 9.560547,-15.238278 1.503905,-5.108075 -2.777674,-10.443355 -8.046876,-10.179688 z"
       style="fill:#ffffff;stroke-width:6.06830406" />
    <path
       style="stroke-width:6.06830406"
       inkscape:connector-curvature="0"
       id="path2"
       d="m -8.2753703,-73.491525 c -3.3618407,0 -6.0683037,2.705856 -6.0683037,6.068304 v 6.068304 c 0,3.36184 2.706463,6.068304 6.0683037,6.068304 3.3618405,0 6.0683041,-2.706464 6.0683041,-6.068304 v -6.068304 c 0,-3.362448 -2.7064636,-6.068304 -6.0683041,-6.068304 z m -47.1950207,19.544187 c -1.55118,0 -3.101996,0.600762 -4.290474,1.790149 -2.377197,2.376955 -2.377197,6.203627 0,8.580582 l 4.290474,4.290291 c 2.377136,2.377562 6.203627,2.377562 8.581188,0 2.377198,-2.376955 2.377198,-6.203627 0,-8.580582 l -4.290473,-4.290291 c -1.188598,-1.188781 -2.739354,-1.790149 -4.290473,-1.790149 z m 94.392469,0 c -1.551119,0 -3.101874,0.600762 -4.290473,1.790149 l -4.290473,4.290291 c -2.377197,2.376955 -2.377197,6.203627 0,8.580582 2.377198,2.377562 6.203627,2.377562 8.581189,0 l 4.290534,-4.290291 c 2.377197,-2.376955 2.377197,-6.203627 0,-8.580582 -1.188538,-1.188781 -2.739354,-1.790149 -4.290534,-1.790149 z m -47.195021,4.729029 c -26.811588,0 -48.546432,21.734238 -48.546432,48.54643239 0.0182,9.27661641 2.689593,18.35297861 7.703712,26.15803161 -4.835711,6.190884 -7.702499,13.972877 -7.703712,22.388401 0,19.184943 14.857028,34.841775 33.683942,36.24416 l 6.909978,-11.970944 h -4.183793 c -13.40549,0 -24.273216,-10.867119 -24.273216,-24.273216 0,-13.406097 10.867726,-24.273216 24.273216,-24.273216 2.191811,0.0055 4.372638,0.309483 6.483376,0.901143 2.568107,-17.9124201 17.9002837,-31.2202109 35.994753,-31.2426637 17.396614,0 32.351949,12.333828 35.698619,29.4051807 4.62866,-3.326037 10.182007,-5.121041 15.881965,-5.131964 15.081556,0 27.307365,12.225205 27.307365,27.307368 0,15.081556 -12.225809,27.307368 -27.307365,27.307368 H 70.615313 L 63.622807,84.28438 h 10.026658 c 21.783998,0 39.443975,-17.659978 39.443975,-39.443976 0,-21.783998 -17.659977,-39.4439765 -39.443975,-39.4439765 -3.026081,0 -6.040572,0.3762348 -8.984124,1.0783376 C 58.762884,-4.3771831 49.023074,-12.284183 37.689909,-16.162436 31.045116,-35.899595 12.552566,-49.198284 -8.2726396,-49.218309 Z m 0,12.136608 c 13.0231874,0 25.044498,6.9919 31.52666,18.287441 -0.398687,0 -0.784996,-0.08496 -1.1852,-0.08496 -19.8051243,0 -37.614383,12.0607542 -45.002543,30.436186 -6.265524,0.436918 -12.049225,2.45827 -17.019773,5.629565 -3.085914,-5.447516 -4.714708,-11.5995628 -4.729029,-17.86144576 0,-20.10853924 16.301285,-36.40982424 36.4098244,-36.40982424 z m -66.751345,30.3415203 c -3.36184,0 -6.068304,2.7058568 -6.068304,6.06830409 0,3.36184041 2.706464,6.06830411 6.068304,6.06830411 h 6.068304 c 3.361841,0 6.068304,-2.7064637 6.068304,-6.06830411 0,-3.36244729 -2.706463,-6.06830409 -6.068304,-6.06830409 z M 4.6100666,60.05971 c -2.346856,-0.297346 -4.74838728,0.803444 -6.0090775,2.98682 l -6.068304,10.51273 c -1.6809202,2.911572 -0.6831697,6.615665 2.2282206,8.296585 2.9114509,1.68092 6.6035284,0.682684 8.2844487,-2.228281 l 6.068304,-10.51273 C 10.794579,66.202655 9.8087827,62.511305 6.8973317,60.830385 6.1694993,60.411672 5.3921496,60.158017 4.6098845,60.05971 Z m 48.5464324,0 c -2.346917,-0.297346 -4.748387,0.803444 -6.009077,2.98682 l -6.068304,10.51273 c -1.680921,2.911572 -0.683231,6.615665 2.22822,8.296585 2.911451,1.68092 6.603529,0.682684 8.284449,-2.228281 l 6.068304,-10.51273 c 1.68092,-2.912179 0.695124,-6.603529 -2.216327,-8.284449 -0.727832,-0.418713 -1.505182,-0.672368 -2.287447,-0.770675 z m -30.34152,19.817261 c -2.346856,-0.297347 -4.736494,0.814366 -5.997184,2.997742 L 10.749491,93.38805 c -1.6809201,2.911572 -0.695124,6.603529 2.216327,8.28445 2.911451,1.68092 6.615665,0.69482 8.296585,-2.216146 l 6.068304,-10.513337 c 1.68092,-2.911572 0.683231,-6.615665 -2.22822,-8.296585 -0.727893,-0.418713 -1.505182,-0.671761 -2.287448,-0.769461 z" />
  </g>
</svg>
